<?xml version="1.0" standalone="no"?>
<!DOCTYPE svg PUBLIC "-//W3C//DTD SVG 20010904//EN"
 "http://www.w3.org/TR/2001/REC-SVG-20010904/DTD/svg10.dtd">
<svg version="1.0" xmlns="http://www.w3.org/2000/svg"
 width="1204.000000pt" height="1204.000000pt" viewBox="0 0 1204.000000 1204.000000"
 preserveAspectRatio="xMidYMid meet">
<metadata>
Created by potrace 1.14, written by Peter Selinger 2001-2017
</metadata>
<g transform="translate(0.000000,1204.000000) scale(0.100000,-0.100000)"
fill="#000000" stroke="none">
<path d="M2967 12034 c-1 -1 -49 -4 -107 -8 -58 -4 -121 -9 -140 -12 -33 -5
-178 -29 -245 -40 -16 -3 -44 -9 -61 -15 -17 -5 -42 -12 -54 -14 -48 -9 -228
-69 -323 -106 -136 -54 -424 -201 -447 -228 -3 -3 -16 -12 -30 -19 -14 -7 -69
-46 -122 -85 -474 -353 -810 -816 -988 -1359 -32 -96 -83 -299 -95 -378 -4
-25 -9 -53 -11 -64 -2 -10 -6 -44 -10 -75 -4 -31 -9 -69 -12 -86 -3 -16 -7
-2171 -9 -4787 l-4 -4758 108 5 c102 5 162 10 243 20 105 14 131 18 195 31
836 173 1536 707 1914 1462 164 325 265 695 286 1037 3 55 7 782 8 1615 1 834
5 1565 9 1625 10 150 33 304 70 465 28 126 92 337 122 405 8 17 30 71 50 120
136 333 343 641 621 921 394 398 853 661 1390 797 77 19 160 39 185 42 25 4
54 9 65 12 11 2 40 6 65 9 25 2 56 7 70 9 127 25 532 24 707 0 18 -3 50 -7 71
-10 733 -101 1449 -528 1897 -1130 33 -44 63 -81 68 -83 4 -2 7 -8 7 -12 0 -5
19 -37 43 -72 169 -248 313 -579 392 -898 30 -123 44 -188 50 -230 1 -8 5 -39
9 -69 4 -30 9 -62 11 -71 18 -95 24 -438 11 -605 -12 -148 -16 -177 -31 -265
-3 -14 -7 -40 -10 -58 -10 -63 -74 -298 -104 -382 -68 -194 -158 -377 -267
-540 -87 -131 -93 -138 -139 -195 -22 -27 -49 -61 -60 -74 -54 -66 -238 -247
-324 -318 -377 -312 -738 -497 -1336 -689 -322 -102 -582 -229 -830 -403 -44
-30 -87 -61 -95 -67 -386 -301 -689 -670 -892 -1089 -59 -124 -62 -131 -113
-265 -46 -122 -108 -338 -129 -455 -18 -98 -26 -147 -32 -200 -3 -33 -8 -69
-10 -80 -3 -11 -7 -85 -11 -165 l-6 -145 814 1 c724 1 971 5 1075 19 17 2 64
6 105 10 103 8 405 53 519 76 52 11 109 22 125 25 17 3 75 16 130 30 55 14
108 27 117 29 82 17 443 134 598 195 213 84 284 115 475 210 272 135 409 213
655 376 384 254 803 617 1100 954 41 47 77 87 80 90 3 3 35 41 71 85 178 217
359 474 504 717 6 9 17 29 26 45 8 15 39 71 69 123 304 544 545 1267 625 1870
3 25 8 52 10 60 2 8 7 51 11 95 3 44 8 82 9 85 2 3 6 52 9 110 4 58 9 128 12
155 12 114 5 576 -11 763 -11 128 -17 188 -20 212 -2 14 -7 49 -10 79 -4 30
-8 61 -10 70 -1 9 -8 50 -15 91 -6 41 -14 86 -16 100 -3 14 -9 48 -14 75 -60
334 -219 853 -351 1142 -10 23 -19 45 -19 48 0 23 -231 472 -308 599 -23 37
-42 70 -42 72 0 8 -168 260 -248 372 -224 312 -549 672 -822 912 -47 41 -87
77 -90 80 -3 3 -52 44 -110 91 -558 453 -1157 778 -1847 1003 -120 39 -398
115 -475 130 -13 2 -45 10 -73 16 -27 6 -59 13 -70 14 -11 2 -29 6 -40 9 -11
3 -38 8 -60 12 -22 3 -78 12 -125 20 -47 7 -110 17 -140 20 -30 4 -66 8 -80
10 -160 22 -436 37 -664 37 -162 0 -369 -7 -466 -17 -19 -2 -70 -6 -112 -10
-43 -3 -86 -8 -95 -9 -10 -2 -47 -7 -83 -11 -36 -4 -68 -9 -71 -10 -3 -2 -27
-6 -55 -10 -88 -10 -242 -38 -384 -70 -322 -71 -707 -197 -1020 -333 -136 -59
-486 -235 -605 -305 -60 -36 -112 -63 -114 -61 -2 2 -4 340 -3 751 0 412 -2
755 -4 763 -3 11 -16 16 -45 15 -22 0 -41 -1 -42 -1z"/>
<path d="M5968 7475 c-2 -2 -46 -5 -98 -8 -52 -4 -104 -8 -115 -10 -11 -3 -40
-8 -65 -12 -25 -4 -90 -18 -145 -31 -526 -130 -987 -492 -1242 -975 -57 -108
-132 -289 -148 -359 -2 -8 -10 -40 -18 -70 -40 -151 -60 -311 -60 -480 0 -84
3 -162 18 -490 2 -47 6 -143 9 -215 4 -71 8 -177 11 -235 10 -224 16 -369 20
-475 2 -60 6 -155 9 -210 3 -55 8 -167 12 -250 3 -82 7 -151 9 -153 5 -6 38
-5 195 2 485 23 546 25 685 31 184 8 309 13 470 21 77 3 178 7 225 9 361 13
508 23 605 41 204 37 366 90 537 174 381 188 686 489 876 865 66 129 125 281
148 380 18 78 46 222 51 270 10 82 10 385 0 465 -19 163 -86 408 -148 545 -12
28 -23 52 -24 55 0 3 -7 16 -14 30 -8 14 -27 49 -43 78 -99 183 -256 379 -414
516 -105 91 -121 103 -224 171 -298 197 -648 307 -1022 319 -54 2 -99 2 -100
1z"/>
</g>
</svg>
